<?xml version="1.0" encoding="UTF-8" standalone="no"?>
<!-- Created with Inkscape (http://www.inkscape.org/) -->

<svg
   xmlns:dc="http://purl.org/dc/elements/1.1/"
   xmlns:cc="http://creativecommons.org/ns#"
   xmlns:rdf="http://www.w3.org/1999/02/22-rdf-syntax-ns#"
   xmlns:svg="http://www.w3.org/2000/svg"
   xmlns="http://www.w3.org/2000/svg"
   xmlns:sodipodi="http://sodipodi.sourceforge.net/DTD/sodipodi-0.dtd"
   xmlns:inkscape="http://www.inkscape.org/namespaces/inkscape"
   version="1.1"
   id="svg2"
   xml:space="preserve"
   width="1650"
   height="2160"
   viewBox="0 0 1650 2160"
   sodipodi:docname="fc_decal_icon-dark_dark-bg.svg"
   inkscape:export-filename="/home/raduweiss/Downloads/fc_decal_icon-dark_dark-bg.png"
   inkscape:export-xdpi="96"
   inkscape:export-ydpi="96"
   inkscape:version="0.92.3 (2405546, 2018-03-11)"><metadata
     id="metadata8"><rdf:RDF><cc:Work
         rdf:about=""><dc:format>image/svg+xml</dc:format><dc:type
           rdf:resource="http://purl.org/dc/dcmitype/StillImage" /><dc:title></dc:title></cc:Work></rdf:RDF></metadata><defs
     id="defs6"><clipPath
       clipPathUnits="userSpaceOnUse"
       id="clipPath20"><path
         d="M 0,180 H 137.274 V 0 H 0 Z"
         id="path18"
         inkscape:connector-curvature="0" /></clipPath><clipPath
       clipPathUnits="userSpaceOnUse"
       id="clipPath40"><path
         d="M 34.9634,153.22 H 103.569 V 27.4196 H 34.9634 Z"
         id="path38"
         inkscape:connector-curvature="0" /></clipPath><clipPath
       clipPathUnits="userSpaceOnUse"
       id="clipPath44"><path
         d="M 69.266,153.22 34.963,72.2 69.266,27.419 103.569,72.2 Z"
         id="path42"
         inkscape:connector-curvature="0" /></clipPath><clipPath
       clipPathUnits="userSpaceOnUse"
       id="clipPath48"><path
         d="M -32768,32767 H 32767 V -32768 H -32768 Z"
         id="path46"
         inkscape:connector-curvature="0" /></clipPath><linearGradient
       x1="0"
       y1="0"
       x2="1"
       y2="0"
       gradientUnits="userSpaceOnUse"
       gradientTransform="matrix(27.366587,37.337978,37.337978,-27.366587,37.462574,45.91819)"
       spreadMethod="pad"
       id="linearGradient56"><stop
         style="stop-opacity:1;stop-color:#ffffff"
         offset="0"
         id="stop50" /><stop
         style="stop-opacity:0;stop-color:#ffffff"
         offset="0.57239"
         id="stop52" /><stop
         style="stop-opacity:0;stop-color:#ffffff"
         offset="1"
         id="stop54" /></linearGradient><mask
       maskUnits="userSpaceOnUse"
       x="0"
       y="0"
       width="1"
       height="1"
       id="mask58"><g
         id="g68"><g
           clip-path="url(#clipPath48)"
           id="g66"><g
             id="g64"><g
               id="g62"><path
                 d="M -32768,32767 H 32767 V -32768 H -32768 Z"
                 style="fill:url(#linearGradient56);stroke:none"
                 id="path60"
                 inkscape:connector-curvature="0" /></g></g></g></g></mask><linearGradient
       x1="0"
       y1="0"
       x2="1"
       y2="0"
       gradientUnits="userSpaceOnUse"
       gradientTransform="matrix(27.366587,37.337978,37.337978,-27.366587,37.462574,45.91819)"
       spreadMethod="pad"
       id="linearGradient76"><stop
         style="stop-opacity:1;stop-color:#ffffff"
         offset="0"
         id="stop70" /><stop
         style="stop-opacity:1;stop-color:#ffffff"
         offset="0.57239"
         id="stop72" /><stop
         style="stop-opacity:1;stop-color:#ffffff"
         offset="1"
         id="stop74" /></linearGradient><clipPath
       clipPathUnits="userSpaceOnUse"
       id="clipPath102"><path
         d="m 52.84,169.619 c -0.961,-0.143 -1.86,-0.498 -2.652,-1.015 v 0 l 19.093,-15.863 19.067,15.863 c -0.792,0.517 -1.691,0.872 -2.654,1.015 v 0 c -3.699,0.556 -10.164,1.365 -16.426,1.365 v 0 c -6.263,0 -12.728,-0.809 -16.428,-1.365"
         id="path100"
         inkscape:connector-curvature="0" /></clipPath><clipPath
       clipPathUnits="userSpaceOnUse"
       id="clipPath110"><path
         d="M -32768,32767 H 32767 V -32768 H -32768 Z"
         id="path108"
         inkscape:connector-curvature="0" /></clipPath><linearGradient
       x1="0"
       y1="0"
       x2="1"
       y2="0"
       gradientUnits="userSpaceOnUse"
       gradientTransform="matrix(38.15987,0,0,-38.15987,50.187824,161.86177)"
       spreadMethod="pad"
       id="linearGradient116"><stop
         style="stop-opacity:0;stop-color:#ffffff"
         offset="0"
         id="stop112" /><stop
         style="stop-opacity:1;stop-color:#ffffff"
         offset="1"
         id="stop114" /></linearGradient><mask
       maskUnits="userSpaceOnUse"
       x="0"
       y="0"
       width="1"
       height="1"
       id="mask118"><g
         id="g128"><g
           clip-path="url(#clipPath110)"
           id="g126"><g
             id="g124"><g
               id="g122"><path
                 d="M -32768,32767 H 32767 V -32768 H -32768 Z"
                 style="fill:url(#linearGradient116);stroke:none"
                 id="path120"
                 inkscape:connector-curvature="0" /></g></g></g></g></mask><linearGradient
       x1="0"
       y1="0"
       x2="1"
       y2="0"
       gradientUnits="userSpaceOnUse"
       gradientTransform="matrix(38.15987,0,0,-38.15987,50.187824,161.86177)"
       spreadMethod="pad"
       id="linearGradient138"><stop
         style="stop-opacity:1;stop-color:#ffffff"
         offset="0"
         id="stop134" /><stop
         style="stop-opacity:1;stop-color:#ffffff"
         offset="1"
         id="stop136" /></linearGradient><clipPath
       clipPathUnits="userSpaceOnUse"
       id="clipPath148"><path
         d="M 48.11,166.462 C 42.569,157.306 23.9,125.695 9.459,92.112 v 0 C 9.239,91.601 9.105,91.064 9.018,90.521 v 0 l 60.263,62.22 -19.093,15.863 c -0.833,-0.544 -1.547,-1.267 -2.078,-2.142"
         id="path146"
         inkscape:connector-curvature="0" /></clipPath><clipPath
       clipPathUnits="userSpaceOnUse"
       id="clipPath156"><path
         d="M -32768,32767 H 32767 V -32768 H -32768 Z"
         id="path154"
         inkscape:connector-curvature="0" /></clipPath><linearGradient
       x1="0"
       y1="0"
       x2="1"
       y2="0"
       gradientUnits="userSpaceOnUse"
       gradientTransform="matrix(44.420986,-0.7593331,-0.7593331,-44.420986,24.437788,129.65071)"
       spreadMethod="pad"
       id="linearGradient162"><stop
         style="stop-opacity:0;stop-color:#ffffff"
         offset="0"
         id="stop158" /><stop
         style="stop-opacity:1;stop-color:#ffffff"
         offset="1"
         id="stop160" /></linearGradient><mask
       maskUnits="userSpaceOnUse"
       x="0"
       y="0"
       width="1"
       height="1"
       id="mask164"><g
         id="g174"><g
           clip-path="url(#clipPath156)"
           id="g172"><g
             id="g170"><g
               id="g168"><path
                 d="M -32768,32767 H 32767 V -32768 H -32768 Z"
                 style="fill:url(#linearGradient162);stroke:none"
                 id="path166"
                 inkscape:connector-curvature="0" /></g></g></g></g></mask><linearGradient
       x1="0"
       y1="0"
       x2="1"
       y2="0"
       gradientUnits="userSpaceOnUse"
       gradientTransform="matrix(44.420986,-0.7593331,-0.7593331,-44.420986,24.437788,129.65071)"
       spreadMethod="pad"
       id="linearGradient184"><stop
         style="stop-opacity:1;stop-color:#ffffff"
         offset="0"
         id="stop180" /><stop
         style="stop-opacity:1;stop-color:#ffffff"
         offset="1"
         id="stop182" /></linearGradient><clipPath
       clipPathUnits="userSpaceOnUse"
       id="clipPath194"><path
         d="M 0,180 H 137.274 V 0 H 0 Z"
         id="path192"
         inkscape:connector-curvature="0" /></clipPath><clipPath
       clipPathUnits="userSpaceOnUse"
       id="clipPath202"><path
         d="M 8.92563,152.74 H 69.2814 V 31.1667 H 8.92563 Z"
         id="path200"
         inkscape:connector-curvature="0" /></clipPath><clipPath
       clipPathUnits="userSpaceOnUse"
       id="clipPath206"><path
         d="M 34.978,71.72 69.281,152.741 9.018,90.521 C 8.886,89.693 8.889,88.845 9.07,88.015 10.606,80.953 16.035,57.35 24.971,32.741 c 0.206,-0.566 0.501,-1.088 0.845,-1.575 z"
         id="path204"
         inkscape:connector-curvature="0" /></clipPath><clipPath
       clipPathUnits="userSpaceOnUse"
       id="clipPath210"><path
         d="M -32768,32767 H 32767 V -32768 H -32768 Z"
         id="path208"
         inkscape:connector-curvature="0" /></clipPath><linearGradient
       x1="0"
       y1="0"
       x2="1"
       y2="0"
       gradientUnits="userSpaceOnUse"
       gradientTransform="matrix(34.706574,-30.729778,-30.729778,-34.706574,26.661245,110.44759)"
       spreadMethod="pad"
       id="linearGradient220"><stop
         style="stop-opacity:1;stop-color:#ffffff"
         offset="0"
         id="stop212" /><stop
         style="stop-opacity:1;stop-color:#ffffff"
         offset="0.2779097"
         id="stop214" /><stop
         style="stop-opacity:0;stop-color:#ffffff"
         offset="0.663157"
         id="stop216" /><stop
         style="stop-opacity:0;stop-color:#ffffff"
         offset="1"
         id="stop218" /></linearGradient><mask
       maskUnits="userSpaceOnUse"
       x="0"
       y="0"
       width="1"
       height="1"
       id="mask222"><g
         id="g232"><g
           clip-path="url(#clipPath210)"
           id="g230"><g
             id="g228"><g
               id="g226"><path
                 d="M -32768,32767 H 32767 V -32768 H -32768 Z"
                 style="fill:url(#linearGradient220);stroke:none"
                 id="path224"
                 inkscape:connector-curvature="0" /></g></g></g></g></mask><linearGradient
       x1="0"
       y1="0"
       x2="1"
       y2="0"
       gradientUnits="userSpaceOnUse"
       gradientTransform="matrix(34.706574,-30.729778,-30.729778,-34.706574,26.661245,110.44759)"
       spreadMethod="pad"
       id="linearGradient242"><stop
         style="stop-opacity:1;stop-color:#ffffff"
         offset="0"
         id="stop234" /><stop
         style="stop-opacity:1;stop-color:#ffffff"
         offset="0.2779097"
         id="stop236" /><stop
         style="stop-opacity:1;stop-color:#ffffff"
         offset="0.663157"
         id="stop238" /><stop
         style="stop-opacity:1;stop-color:#ffffff"
         offset="1"
         id="stop240" /></linearGradient><clipPath
       clipPathUnits="userSpaceOnUse"
       id="clipPath268"><path
         d="M 25.8161,71.7205 H 69.2814 V 7.65755 H 25.8161 Z"
         id="path266"
         inkscape:connector-curvature="0" /></clipPath><clipPath
       clipPathUnits="userSpaceOnUse"
       id="clipPath272"><path
         d="m 25.816,31.166 c 0.471,-0.664 1.046,-1.252 1.729,-1.713 C 32.674,25.987 48.038,16.05 66.672,8.18 67.503,7.828 68.392,7.656 69.281,7.657 V 26.94 L 34.978,71.72 Z"
         id="path270"
         inkscape:connector-curvature="0" /></clipPath><clipPath
       clipPathUnits="userSpaceOnUse"
       id="clipPath276"><path
         d="M -32768,32767 H 32767 V -32768 H -32768 Z"
         id="path274"
         inkscape:connector-curvature="0" /></clipPath><linearGradient
       x1="0"
       y1="0"
       x2="1"
       y2="0"
       gradientUnits="userSpaceOnUse"
       gradientTransform="matrix(-16.350126,-24.715305,-24.715305,16.350126,62.997124,56.11599)"
       spreadMethod="pad"
       id="linearGradient282"><stop
         style="stop-opacity:1;stop-color:#ffffff"
         offset="0"
         id="stop278" /><stop
         style="stop-opacity:0;stop-color:#ffffff"
         offset="1"
         id="stop280" /></linearGradient><mask
       maskUnits="userSpaceOnUse"
       x="0"
       y="0"
       width="1"
       height="1"
       id="mask284"><g
         id="g294"><g
           clip-path="url(#clipPath276)"
           id="g292"><g
             id="g290"><g
               id="g288"><path
                 d="M -32768,32767 H 32767 V -32768 H -32768 Z"
                 style="fill:url(#linearGradient282);stroke:none"
                 id="path286"
                 inkscape:connector-curvature="0" /></g></g></g></g></mask><linearGradient
       x1="0"
       y1="0"
       x2="1"
       y2="0"
       gradientUnits="userSpaceOnUse"
       gradientTransform="matrix(-16.350126,-24.715305,-24.715305,16.350126,62.997124,56.11599)"
       spreadMethod="pad"
       id="linearGradient300"><stop
         style="stop-opacity:1;stop-color:#ffffff"
         offset="0"
         id="stop296" /><stop
         style="stop-opacity:1;stop-color:#ffffff"
         offset="1"
         id="stop298" /></linearGradient><clipPath
       clipPathUnits="userSpaceOnUse"
       id="clipPath326"><path
         d="M 69.2814,71.7205 H 112.74 V 7.65756 H 69.2814 Z"
         id="path324"
         inkscape:connector-curvature="0" /></clipPath><clipPath
       clipPathUnits="userSpaceOnUse"
       id="clipPath330"><path
         d="M 103.584,71.72 69.281,26.94 V 7.657 c 0.88,0.002 1.759,0.175 2.582,0.523 18.635,7.87 33.998,17.807 39.127,21.273 0.693,0.468 1.276,1.068 1.75,1.745 z"
         id="path328"
         inkscape:connector-curvature="0" /></clipPath><clipPath
       clipPathUnits="userSpaceOnUse"
       id="clipPath334"><path
         d="M -32768,32767 H 32767 V -32768 H -32768 Z"
         id="path332"
         inkscape:connector-curvature="0" /></clipPath><linearGradient
       x1="0"
       y1="0"
       x2="1"
       y2="0"
       gradientUnits="userSpaceOnUse"
       gradientTransform="matrix(26.076679,-12.136224,-12.136224,-26.076679,77.917152,43.652183)"
       spreadMethod="pad"
       id="linearGradient342"><stop
         style="stop-opacity:1;stop-color:#ffffff"
         offset="0"
         id="stop336" /><stop
         style="stop-opacity:0;stop-color:#ffffff"
         offset="0.437959"
         id="stop338" /><stop
         style="stop-opacity:0;stop-color:#ffffff"
         offset="1"
         id="stop340" /></linearGradient><mask
       maskUnits="userSpaceOnUse"
       x="0"
       y="0"
       width="1"
       height="1"
       id="mask344"><g
         id="g354"><g
           clip-path="url(#clipPath334)"
           id="g352"><g
             id="g350"><g
               id="g348"><path
                 d="M -32768,32767 H 32767 V -32768 H -32768 Z"
                 style="fill:url(#linearGradient342);stroke:none"
                 id="path346"
                 inkscape:connector-curvature="0" /></g></g></g></g></mask><linearGradient
       x1="0"
       y1="0"
       x2="1"
       y2="0"
       gradientUnits="userSpaceOnUse"
       gradientTransform="matrix(26.076679,-12.136224,-12.136224,-26.076679,77.917152,43.652183)"
       spreadMethod="pad"
       id="linearGradient362"><stop
         style="stop-opacity:1;stop-color:#ffffff"
         offset="0"
         id="stop356" /><stop
         style="stop-opacity:1;stop-color:#ffffff"
         offset="0.437959"
         id="stop358" /><stop
         style="stop-opacity:1;stop-color:#ffffff"
         offset="1"
         id="stop360" /></linearGradient><clipPath
       clipPathUnits="userSpaceOnUse"
       id="clipPath388"><path
         d="M 69.2814,152.74 H 129.61 V 31.1976 H 69.2814 Z"
         id="path386"
         inkscape:connector-curvature="0" /></clipPath><clipPath
       clipPathUnits="userSpaceOnUse"
       id="clipPath392"><path
         d="m 103.584,71.72 9.156,-40.522 c 0.335,0.477 0.623,0.989 0.824,1.543 8.936,24.609 14.365,48.212 15.901,55.274 0.183,0.841 0.185,1.699 0.047,2.537 l -60.231,62.189 z"
         id="path390"
         inkscape:connector-curvature="0" /></clipPath><clipPath
       clipPathUnits="userSpaceOnUse"
       id="clipPath396"><path
         d="M -32768,32767 H 32767 V -32768 H -32768 Z"
         id="path394"
         inkscape:connector-curvature="0" /></clipPath><linearGradient
       x1="0"
       y1="0"
       x2="1"
       y2="0"
       gradientUnits="userSpaceOnUse"
       gradientTransform="matrix(25.475777,16.350124,16.350124,-25.475777,92.84536,93.146507)"
       spreadMethod="pad"
       id="linearGradient404"><stop
         style="stop-opacity:1;stop-color:#ffffff"
         offset="0"
         id="stop398" /><stop
         style="stop-opacity:0;stop-color:#ffffff"
         offset="0.512696"
         id="stop400" /><stop
         style="stop-opacity:0;stop-color:#ffffff"
         offset="1"
         id="stop402" /></linearGradient><mask
       maskUnits="userSpaceOnUse"
       x="0"
       y="0"
       width="1"
       height="1"
       id="mask406"><g
         id="g416"><g
           clip-path="url(#clipPath396)"
           id="g414"><g
             id="g412"><g
               id="g410"><path
                 d="M -32768,32767 H 32767 V -32768 H -32768 Z"
                 style="fill:url(#linearGradient404);stroke:none"
                 id="path408"
                 inkscape:connector-curvature="0" /></g></g></g></g></mask><linearGradient
       x1="0"
       y1="0"
       x2="1"
       y2="0"
       gradientUnits="userSpaceOnUse"
       gradientTransform="matrix(25.475777,16.350124,16.350124,-25.475777,92.84536,93.146507)"
       spreadMethod="pad"
       id="linearGradient424"><stop
         style="stop-opacity:1;stop-color:#ffffff"
         offset="0"
         id="stop418" /><stop
         style="stop-opacity:1;stop-color:#ffffff"
         offset="0.512696"
         id="stop420" /><stop
         style="stop-opacity:1;stop-color:#ffffff"
         offset="1"
         id="stop422" /></linearGradient></defs><sodipodi:namedview
     pagecolor="#ffffff"
     bordercolor="#000000"
     borderopacity="0.50196078"
     objecttolerance="10"
     gridtolerance="10"
     guidetolerance="10"
     inkscape:pageopacity="0"
     inkscape:pageshadow="2"
     inkscape:window-width="2560"
     inkscape:window-height="1053"
     id="namedview4"
     showgrid="false"
     inkscape:showpageshadow="false"
     borderlayer="true"
     inkscape:pagecheckerboard="true"
     fit-margin-top="0"
     fit-margin-left="0"
     fit-margin-right="0"
     fit-margin-bottom="0"
     inkscape:zoom="0.34766083"
     inkscape:cx="1609.8236"
     inkscape:cy="1085.0633"
     inkscape:window-x="0"
     inkscape:window-y="27"
     inkscape:window-maximized="1"
     inkscape:current-layer="g10" /><g
     id="g10"
     inkscape:groupmode="layer"
     inkscape:label="fc_logo_icon_mac-decal"
     transform="matrix(1.3333333,0,0,-1.3333333,-6.1349197,2166.1175)"><g
       id="g2202"><g
         transform="matrix(9.5596091,0,0,9.5596091,1230.5576,869.35993)"
         id="g22"
         style="stroke-width:0.10460678"><path
           inkscape:connector-curvature="0"
           id="path24"
           style="fill:#231f20;fill-opacity:1;fill-rule:nonzero;stroke:none;stroke-width:0.10460678"
           d="m 0,0 c -13.813,32.12 -31.724,62.435 -36.885,70.962 -2.119,3.501 -5.624,5.899 -9.673,6.612 -0.11,0.022 -0.221,0.041 -0.326,0.057 -0.466,0.07 -0.974,0.143 -1.511,0.218 -0.813,0.113 -1.709,0.229 -2.679,0.344 -0.64,0.077 -1.31,0.151 -2.008,0.224 -0.696,0.071 -1.416,0.14 -2.152,0.203 -0.741,0.064 -1.498,0.121 -2.269,0.172 -2.112,0.14 -4.136,0.21 -6.014,0.21 -3.19,0 -6.74,-0.201 -10.547,-0.598 -0.617,-0.064 -1.215,-0.132 -1.787,-0.199 -1.05,-0.123 -2.023,-0.25 -2.895,-0.372 -0.428,-0.06 -0.83,-0.117 -1.207,-0.173 -0.005,-10e-4 -0.193,-0.028 -0.193,-0.028 -4.093,-0.614 -7.687,-2.974 -9.886,-6.485 -0.021,-0.032 -0.099,-0.156 -0.117,-0.186 -2.795,-4.618 -8.492,-14.228 -15.24,-26.703 -0.427,-0.789 -0.859,-1.59 -1.293,-2.401 -0.576,-1.076 -1.159,-2.171 -1.748,-3.284 -0.298,-0.564 -0.597,-1.132 -0.899,-1.708 -0.37,-0.705 -0.742,-1.418 -1.117,-2.137 -0.379,-0.73 -0.76,-1.465 -1.141,-2.207 -0.301,-0.584 -1.368,-2.668 -1.368,-2.668 -1.252,-2.46 -2.49,-4.935 -3.68,-7.354 l -0.457,-0.932 c -3.647,-7.452 -6.992,-14.708 -9.942,-21.567 -0.979,-2.278 -1.342,-4.79 -1.055,-7.216 0,0 0.008,-0.077 0.013,-0.116 0.046,-0.373 0.101,-0.723 0.169,-1.063 0.024,-0.131 0.052,-0.262 0.083,-0.391 1.397,-6.405 5.241,-22.971 11.445,-41.918 0.235,-0.718 0.474,-1.44 0.715,-2.163 0.326,-0.974 0.659,-1.954 0.997,-2.937 0.709,-2.069 1.387,-3.989 2.065,-5.856 0.048,-0.134 0.099,-0.265 0.154,-0.396 0.071,-0.18 0.145,-0.359 0.223,-0.536 0.9,-2.021 2.284,-3.832 4.006,-5.235 0.323,-0.264 0.634,-0.497 0.947,-0.712 0.027,-0.02 0.055,-0.038 0.083,-0.057 1.203,-0.812 2.497,-1.663 3.846,-2.528 l 0.828,-0.529 c 0.563,-0.357 1.16,-0.732 1.786,-1.121 0.628,-0.391 1.288,-0.797 1.982,-1.221 0.688,-0.419 1.407,-0.852 2.155,-1.297 0.747,-0.444 1.523,-0.9 2.324,-1.365 0.801,-0.465 1.628,-0.939 2.481,-1.421 0.853,-0.483 1.732,-0.972 2.633,-1.467 6.804,-3.735 13.581,-7.034 20.14,-9.804 1.746,-0.738 3.596,-1.112 5.497,-1.112 1.902,0 3.752,0.374 5.497,1.111 17.968,7.588 32.685,17.043 38.166,20.747 0.347,0.235 0.691,0.492 1.059,0.791 1.977,1.619 3.482,3.734 4.352,6.118 0.002,0.006 0.005,0.013 0.007,0.019 2.143,5.9 4.244,12.212 6.245,18.762 0.911,2.982 1.81,6.042 2.671,9.093 0.437,1.545 0.853,3.047 1.247,4.501 2.611,9.612 4.315,17.09 5.098,20.69 0.091,0.415 0.162,0.845 0.218,1.3 0.004,0.036 0.009,0.074 0.013,0.113 C 1.338,-4.756 0.973,-2.262 0,0" /></g><g
         transform="matrix(9.5596091,0,0,9.5596091,825.60012,1552.0412)"
         id="g26"
         style="stroke-width:0.10460678"><path
           inkscape:connector-curvature="0"
           id="path28"
           style="fill:#231f20;fill-opacity:1;fill-rule:nonzero;stroke:none;stroke-width:0.10460678"
           d="m 0,0 c -1.033,1.707 -2.756,2.861 -4.729,3.157 -3.7,0.556 -10.165,1.364 -16.428,1.364 -6.262,0 -12.727,-0.808 -16.427,-1.364 -1.973,-0.296 -3.696,-1.45 -4.729,-3.157 -5.542,-9.156 -24.21,-40.768 -38.652,-74.35 -0.556,-1.293 -0.688,-2.722 -0.389,-4.097 1.536,-7.062 6.964,-30.665 15.9,-55.274 0.487,-1.341 1.393,-2.489 2.575,-3.288 5.129,-3.467 20.492,-13.403 39.127,-21.273 1.652,-0.698 3.538,-0.698 5.19,0 18.635,7.87 33.999,17.806 39.128,21.273 1.182,0.799 2.087,1.947 2.574,3.288 8.936,24.609 14.364,48.212 15.901,55.274 0.299,1.375 0.167,2.804 -0.39,4.097 C 24.21,-40.768 5.542,-9.156 0,0" /></g><g
         transform="matrix(9.5596091,0,0,9.5596091,837.0076,1063.5768)"
         id="g30"
         style="stroke-width:0.10460678"><path
           inkscape:connector-curvature="0"
           id="path32"
           style="fill:#ffffff;fill-opacity:1;fill-rule:nonzero;stroke:none;stroke-width:0.10460678"
           d="m 0,0 c -1.828,0 -3.309,-1.481 -3.309,-3.309 0,-1.828 1.481,-3.309 3.309,-3.309 1.827,0 3.309,1.481 3.309,3.309 C 3.309,-1.481 1.827,0 0,0 m 14.875,-45.321 c 0,-20.421 -16.667,-37.225 -37.225,-37.225 -20.559,0 -37.225,16.764 -37.225,37.225 0,8.561 3.06,15.47 6.515,15.47 3.455,0 0.96,-9.212 5.758,-9.404 8.057,-0.322 7.181,28.466 12.284,29.366 3.263,0.576 3.255,-10.201 7.738,-8.254 4.482,1.949 3.202,27.255 8.193,27.255 4.99,0 4.99,-41.841 12.284,-42.993 7.078,-1.117 4.99,15.547 9.021,15.547 4.031,0 12.657,-15.739 12.657,-26.987" /></g><g
         transform="matrix(9.5596091,0,0,9.5596091,1395.1205,-39.272316)"
         id="g1390"
         style="stroke-width:0.10460678"><g
           id="g34"
           transform="translate(-150)"
           style="stroke-width:0.10460678"><g
             id="g36"
             style="stroke-width:0.10460678" /><g
             id="g94"
             style="stroke-width:0.10460678"><g
               clip-path="url(#clipPath40)"
               id="g92"
               style="opacity:0.39999402;stroke-width:0.10460678"><g
                 id="g90"
                 style="stroke-width:0.10460678"><g
                   clip-path="url(#clipPath44)"
                   id="g88"
                   style="stroke-width:0.10460678"><g
                     id="g86"
                     style="stroke-width:0.10460678"><g
                       id="g78"
                       style="stroke-width:0.10460678" /><g
                       mask="url(#mask58)"
                       id="g84"
                       style="stroke-width:0.10460678"><g
                         id="g82"
                         style="stroke-width:0.10460678"><path
                           d="M 69.266,153.22 34.963,72.2 69.266,27.419 103.569,72.2 Z"
                           style="fill:url(#linearGradient76);stroke:none;stroke-width:0.10460678"
                           id="path80"
                           inkscape:connector-curvature="0" /></g></g></g></g></g></g></g></g><g
           id="g96"
           transform="translate(-150)"
           style="stroke-width:0.10460678"><g
             id="g98"
             clip-path="url(#clipPath102)"
             style="stroke-width:0.10460678"><g
               id="g104"
               style="stroke-width:0.10460678"><g
                 id="g106"
                 style="stroke-width:0.10460678" /><g
                 id="g130"
                 mask="url(#mask118)"
                 style="stroke-width:0.10460678"><g
                   id="g132"
                   style="stroke-width:0.10460678"><path
                     d="m 52.84,169.619 c -0.961,-0.143 -1.86,-0.498 -2.652,-1.015 v 0 l 19.093,-15.863 19.067,15.863 c -0.792,0.517 -1.691,0.872 -2.654,1.015 v 0 c -3.699,0.556 -10.164,1.365 -16.426,1.365 v 0 c -6.263,0 -12.728,-0.809 -16.428,-1.365"
                     style="fill:url(#linearGradient138);stroke:none;stroke-width:0.10460678"
                     id="path140"
                     inkscape:connector-curvature="0" /></g></g></g></g></g><g
           id="g142"
           transform="translate(-150)"
           style="stroke-width:0.10460678"><g
             id="g144"
             clip-path="url(#clipPath148)"
             style="stroke-width:0.10460678"><g
               id="g150"
               style="stroke-width:0.10460678"><g
                 id="g152"
                 style="stroke-width:0.10460678" /><g
                 id="g176"
                 mask="url(#mask164)"
                 style="stroke-width:0.10460678"><g
                   id="g178"
                   style="stroke-width:0.10460678"><path
                     d="M 48.11,166.462 C 42.569,157.306 23.9,125.695 9.459,92.112 v 0 C 9.239,91.601 9.105,91.064 9.018,90.521 v 0 l 60.263,62.22 -19.093,15.863 c -0.833,-0.544 -1.547,-1.267 -2.078,-2.142"
                     style="fill:url(#linearGradient184);stroke:none;stroke-width:0.10460678"
                     id="path186"
                     inkscape:connector-curvature="0" /></g></g></g></g></g><g
           id="g188"
           transform="translate(-150)"
           style="stroke-width:0.10460678"><g
             id="g190"
             clip-path="url(#clipPath194)"
             style="stroke-width:0.10460678"><g
               id="g196"
               style="stroke-width:0.10460678"><g
                 id="g198"
                 style="stroke-width:0.10460678" /><g
                 id="g260"
                 style="stroke-width:0.10460678"><g
                   clip-path="url(#clipPath202)"
                   id="g258"
                   style="opacity:0.60000598;stroke-width:0.10460678"><g
                     id="g256"
                     style="stroke-width:0.10460678"><g
                       clip-path="url(#clipPath206)"
                       id="g254"
                       style="stroke-width:0.10460678"><g
                         id="g252"
                         style="stroke-width:0.10460678"><g
                           id="g244"
                           style="stroke-width:0.10460678" /><g
                           mask="url(#mask222)"
                           id="g250"
                           style="stroke-width:0.10460678"><g
                             id="g248"
                             style="stroke-width:0.10460678"><path
                               d="M 34.978,71.72 69.281,152.741 9.018,90.521 C 8.886,89.693 8.889,88.845 9.07,88.015 10.606,80.953 16.035,57.35 24.971,32.741 c 0.206,-0.566 0.501,-1.088 0.845,-1.575 z"
                               style="fill:url(#linearGradient242);stroke:none;stroke-width:0.10460678"
                               id="path246"
                               inkscape:connector-curvature="0" /></g></g></g></g></g></g></g></g><g
               id="g262"
               style="stroke-width:0.10460678"><g
                 id="g264"
                 style="stroke-width:0.10460678" /><g
                 id="g318"
                 style="stroke-width:0.10460678"><g
                   clip-path="url(#clipPath268)"
                   id="g316"
                   style="opacity:0.30000299;stroke-width:0.10460678"><g
                     id="g314"
                     style="stroke-width:0.10460678"><g
                       clip-path="url(#clipPath272)"
                       id="g312"
                       style="stroke-width:0.10460678"><g
                         id="g310"
                         style="stroke-width:0.10460678"><g
                           id="g302"
                           style="stroke-width:0.10460678" /><g
                           mask="url(#mask284)"
                           id="g308"
                           style="stroke-width:0.10460678"><g
                             id="g306"
                             style="stroke-width:0.10460678"><path
                               d="m 25.816,31.166 c 0.471,-0.664 1.046,-1.252 1.729,-1.713 C 32.674,25.987 48.038,16.05 66.672,8.18 67.503,7.828 68.392,7.656 69.281,7.657 V 26.94 L 34.978,71.72 Z"
                               style="fill:url(#linearGradient300);stroke:none;stroke-width:0.10460678"
                               id="path304"
                               inkscape:connector-curvature="0" /></g></g></g></g></g></g></g></g><g
               id="g320"
               style="stroke-width:0.10460678"><g
                 id="g322"
                 style="stroke-width:0.10460678" /><g
                 id="g380"
                 style="stroke-width:0.10460678"><g
                   clip-path="url(#clipPath326)"
                   id="g378"
                   style="opacity:0.39999402;stroke-width:0.10460678"><g
                     id="g376"
                     style="stroke-width:0.10460678"><g
                       clip-path="url(#clipPath330)"
                       id="g374"
                       style="stroke-width:0.10460678"><g
                         id="g372"
                         style="stroke-width:0.10460678"><g
                           id="g364"
                           style="stroke-width:0.10460678" /><g
                           mask="url(#mask344)"
                           id="g370"
                           style="stroke-width:0.10460678"><g
                             id="g368"
                             style="stroke-width:0.10460678"><path
                               d="M 103.584,71.72 69.281,26.94 V 7.657 c 0.88,0.002 1.759,0.175 2.582,0.523 18.635,7.87 33.998,17.807 39.127,21.273 0.693,0.468 1.276,1.068 1.75,1.745 z"
                               style="fill:url(#linearGradient362);stroke:none;stroke-width:0.10460678"
                               id="path366"
                               inkscape:connector-curvature="0" /></g></g></g></g></g></g></g></g><g
               id="g382"
               style="stroke-width:0.10460678"><g
                 id="g384"
                 style="stroke-width:0.10460678" /><g
                 id="g442"
                 style="stroke-width:0.10460678"><g
                   clip-path="url(#clipPath388)"
                   id="g440"
                   style="opacity:0.39999402;stroke-width:0.10460678"><g
                     id="g438"
                     style="stroke-width:0.10460678"><g
                       clip-path="url(#clipPath392)"
                       id="g436"
                       style="stroke-width:0.10460678"><g
                         id="g434"
                         style="stroke-width:0.10460678"><g
                           id="g426"
                           style="stroke-width:0.10460678" /><g
                           mask="url(#mask406)"
                           id="g432"
                           style="stroke-width:0.10460678"><g
                             id="g430"
                             style="stroke-width:0.10460678"><path
                               d="m 103.584,71.72 9.156,-40.522 c 0.335,0.477 0.623,0.989 0.824,1.543 8.936,24.609 14.365,48.212 15.901,55.274 0.183,0.841 0.185,1.699 0.047,2.537 l -60.231,62.189 z"
                               style="fill:url(#linearGradient424);stroke:none;stroke-width:0.10460678"
                               id="path428"
                               inkscape:connector-curvature="0" /></g></g></g></g></g></g></g></g></g></g></g></g></g></svg>